<svg xmlns="http://www.w3.org/2000/svg" viewBox="0 0 128 128" id="whatsapp"><path fill="#26cc64" d="M64.2 6a57.92 57.92 0 0 0-49.35 88.37L5.8 122l33.64-5.61A58 58 0 1 0 64.2 6Z"></path><path fill="#26cc64" d="M5.8 124a2 2 0 0 1-1.9-2.62l8.76-26.76A60 60 0 1 1 64.2 124a59.39 59.39 0 0 1-25-5.53l-33 5.5a1.84 1.84 0 0 1-.4.03Zm33.64-9.61a2 2 0 0 1 .86.2A55.5 55.5 0 0 0 64.2 120a56.14 56.14 0 1 0-47.65-26.68 2 2 0 0 1 .2 1.67l-8 24.49 30.38-5.06a1.84 1.84 0 0 1 .31-.03Z"></path><path fill="#fff" d="M29.1 44.58A55.37 55.37 0 0 0 84.37 100h1.81A13.86 13.86 0 0 0 99 83.47a13.58 13.58 0 0 0-.8-2.63L75 77.14a13.74 13.74 0 0 0-3.19 7.06 41.63 41.63 0 0 1-26.58-26 13.78 13.78 0 0 0 6.83-3.2l-3.65-23.12a12.75 12.75 0 0 0-3.2-1 13.27 13.27 0 0 0-2.29-.2 13.84 13.84 0 0 0-13.82 13.9Z"></path></svg>